<?xml version="1.0" encoding="UTF-8"?>
<svg xmlns="http://www.w3.org/2000/svg" width="16" height="16" viewBox="0 0 150 150" fill="none">
    <path fill="#f2b40c" d="M 150 75 C 150 76.226562 149.96875 77.453125 149.910156 78.679688 C 149.847656 79.90625 149.757812 81.128906 149.640625 82.351562 C 149.519531 83.574219 149.367188 84.789062 149.1875 86.003906 C 149.007812 87.21875 148.796875 88.429688 148.558594 89.632812 C 148.320312 90.835938 148.050781 92.03125 147.753906 93.222656 C 147.453125 94.414062 147.125 95.597656 146.769531 96.769531 C 146.414062 97.945312 146.027344 99.109375 145.617188 100.265625 C 145.203125 101.421875 144.761719 102.566406 144.289062 103.703125 C 143.820312 104.835938 143.324219 105.957031 142.800781 107.066406 C 142.273438 108.175781 141.722656 109.273438 141.144531 110.355469 C 140.566406 111.4375 139.960938 112.503906 139.328125 113.558594 C 138.699219 114.609375 138.042969 115.648438 137.359375 116.667969 C 136.679688 117.6875 135.972656 118.691406 135.242188 119.675781 C 134.507812 120.664062 133.753906 121.628906 132.976562 122.578125 C 132.195312 123.527344 131.394531 124.457031 130.570312 125.367188 C 129.746094 126.277344 128.902344 127.164062 128.03125 128.03125 C 127.164062 128.902344 126.277344 129.746094 125.367188 130.570312 C 124.457031 131.394531 123.527344 132.195312 122.578125 132.976562 C 121.628906 133.753906 120.664062 134.507812 119.675781 135.242188 C 118.691406 135.972656 117.6875 136.679688 116.667969 137.359375 C 115.648438 138.042969 114.609375 138.699219 113.558594 139.328125 C 112.503906 139.960938 111.4375 140.566406 110.355469 141.144531 C 109.273438 141.722656 108.175781 142.273438 107.066406 142.800781 C 105.957031 143.324219 104.835938 143.820312 103.703125 144.289062 C 102.566406 144.761719 101.421875 145.203125 100.265625 145.617188 C 99.109375 146.027344 97.945312 146.414062 96.769531 146.769531 C 95.597656 147.125 94.414062 147.453125 93.222656 147.753906 C 92.03125 148.050781 90.835938 148.320312 89.632812 148.558594 C 88.429688 148.796875 87.21875 149.007812 86.003906 149.1875 C 84.789062 149.367188 83.574219 149.519531 82.351562 149.640625 C 81.128906 149.757812 79.90625 149.847656 78.679688 149.910156 C 77.453125 149.96875 76.226562 150 75 150 C 73.773438 150 72.546875 149.96875 71.320312 149.910156 C 70.09375 149.847656 68.871094 149.757812 67.648438 149.640625 C 66.425781 149.519531 65.210938 149.367188 63.996094 149.1875 C 62.78125 149.007812 61.570312 148.796875 60.367188 148.558594 C 59.164062 148.320312 57.96875 148.050781 56.777344 147.753906 C 55.585938 147.453125 54.402344 147.125 53.230469 146.769531 C 52.054688 146.414062 50.890625 146.027344 49.734375 145.617188 C 48.578125 145.203125 47.433594 144.761719 46.296875 144.289062 C 45.164062 143.820312 44.042969 143.324219 42.933594 142.800781 C 41.824219 142.273438 40.726562 141.722656 39.644531 141.144531 C 38.5625 140.566406 37.496094 139.960938 36.441406 139.328125 C 35.390625 138.699219 34.351562 138.042969 33.332031 137.359375 C 32.3125 136.679688 31.308594 135.972656 30.324219 135.242188 C 29.335938 134.507812 28.371094 133.753906 27.421875 132.976562 C 26.472656 132.195312 25.542969 131.394531 24.632812 130.570312 C 23.722656 129.746094 22.835938 128.902344 21.96875 128.03125 C 21.097656 127.164062 20.253906 126.277344 19.429688 125.367188 C 18.605469 124.457031 17.804688 123.527344 17.023438 122.578125 C 16.246094 121.628906 15.492188 120.664062 14.757812 119.675781 C 14.027344 118.691406 13.320312 117.6875 12.640625 116.667969 C 11.957031 115.648438 11.300781 114.609375 10.671875 113.558594 C 10.039062 112.503906 9.433594 111.4375 8.855469 110.355469 C 8.277344 109.273438 7.726562 108.175781 7.199219 107.066406 C 6.675781 105.957031 6.179688 104.835938 5.710938 103.703125 C 5.238281 102.566406 4.796875 101.421875 4.382812 100.265625 C 3.96875 99.109375 3.585938 97.945312 3.230469 96.769531 C 2.875 95.597656 2.546875 94.414062 2.246094 93.222656 C 1.949219 92.03125 1.679688 90.835938 1.441406 89.632812 C 1.203125 88.429688 0.992188 87.21875 0.8125 86.003906 C 0.632812 84.789062 0.480469 83.574219 0.359375 82.351562 C 0.242188 81.128906 0.152344 79.90625 0.0898438 78.679688 C 0.03125 77.453125 0 76.226562 0 75 C 0 73.773438 0.03125 72.546875 0.0898438 71.320312 C 0.152344 70.09375 0.242188 68.871094 0.359375 67.648438 C 0.480469 66.425781 0.632812 65.210938 0.8125 63.996094 C 0.992188 62.78125 1.203125 61.570312 1.441406 60.367188 C 1.679688 59.164062 1.949219 57.96875 2.246094 56.777344 C 2.546875 55.585938 2.875 54.402344 3.230469 53.230469 C 3.585938 52.054688 3.96875 50.890625 4.382812 49.734375 C 4.796875 48.578125 5.238281 47.433594 5.710938 46.296875 C 6.179688 45.164062 6.675781 44.042969 7.199219 42.933594 C 7.726562 41.824219 8.277344 40.726562 8.855469 39.644531 C 9.433594 38.5625 10.039062 37.496094 10.671875 36.441406 C 11.300781 35.390625 11.957031 34.351562 12.640625 33.332031 C 13.320312 32.3125 14.027344 31.308594 14.757812 30.324219 C 15.492188 29.335938 16.246094 28.371094 17.023438 27.421875 C 17.804688 26.472656 18.605469 25.542969 19.429688 24.632812 C 20.253906 23.722656 21.097656 22.835938 21.96875 21.96875 C 22.835938 21.097656 23.722656 20.253906 24.632812 19.429688 C 25.542969 18.605469 26.472656 17.804688 27.421875 17.023438 C 28.371094 16.246094 29.335938 15.492188 30.324219 14.757812 C 31.308594 14.027344 32.3125 13.320312 33.332031 12.640625 C 34.351562 11.957031 35.390625 11.300781 36.441406 10.671875 C 37.496094 10.039062 38.5625 9.433594 39.644531 8.855469 C 40.726562 8.277344 41.824219 7.726562 42.933594 7.199219 C 44.042969 6.675781 45.164062 6.179688 46.296875 5.710938 C 47.433594 5.238281 48.578125 4.796875 49.734375 4.382812 C 50.890625 3.96875 52.054688 3.585938 53.230469 3.230469 C 54.402344 2.875 55.585938 2.546875 56.777344 2.246094 C 57.96875 1.949219 59.164062 1.679688 60.367188 1.441406 C 61.570312 1.203125 62.78125 0.992188 63.996094 0.8125 C 65.210938 0.632812 66.425781 0.480469 67.648438 0.359375 C 68.871094 0.242188 70.09375 0.152344 71.320312 0.0898438 C 72.546875 0.03125 73.773438 0 75 0 C 76.226562 0 77.453125 0.03125 78.679688 0.0898438 C 79.90625 0.152344 81.128906 0.242188 82.351562 0.359375 C 83.574219 0.480469 84.789062 0.632812 86.003906 0.8125 C 87.21875 0.992188 88.429688 1.203125 89.632812 1.441406 C 90.835938 1.679688 92.03125 1.949219 93.222656 2.246094 C 94.414062 2.546875 95.597656 2.875 96.769531 3.230469 C 97.945312 3.585938 99.109375 3.96875 100.265625 4.382812 C 101.421875 4.796875 102.566406 5.238281 103.703125 5.710938 C 104.835938 6.179688 105.957031 6.675781 107.066406 7.199219 C 108.175781 7.726562 109.273438 8.277344 110.355469 8.855469 C 111.4375 9.433594 112.503906 10.039062 113.558594 10.671875 C 114.609375 11.300781 115.648438 11.957031 116.667969 12.640625 C 117.6875 13.320312 118.691406 14.027344 119.675781 14.757812 C 120.664062 15.492188 121.628906 16.246094 122.578125 17.023438 C 123.527344 17.804688 124.457031 18.605469 125.367188 19.429688 C 126.277344 20.253906 127.164062 21.097656 128.03125 21.96875 C 128.902344 22.835938 129.746094 23.722656 130.570312 24.632812 C 131.394531 25.542969 132.195312 26.472656 132.976562 27.421875 C 133.753906 28.371094 134.507812 29.335938 135.242188 30.324219 C 135.972656 31.308594 136.679688 32.3125 137.359375 33.332031 C 138.042969 34.351562 138.699219 35.390625 139.328125 36.441406 C 139.960938 37.496094 140.566406 38.5625 141.144531 39.644531 C 141.722656 40.726562 142.273438 41.824219 142.800781 42.933594 C 143.324219 44.042969 143.820312 45.164062 144.289062 46.296875 C 144.761719 47.433594 145.203125 48.578125 145.617188 49.734375 C 146.027344 50.890625 146.414062 52.054688 146.769531 53.230469 C 147.125 54.402344 147.453125 55.585938 147.753906 56.777344 C 148.050781 57.96875 148.320312 59.164062 148.558594 60.367188 C 148.796875 61.570312 149.007812 62.78125 149.1875 63.996094 C 149.367188 65.210938 149.519531 66.425781 149.640625 67.648438 C 149.757812 68.871094 149.847656 70.09375 149.910156 71.320312 C 149.96875 72.546875 150 73.773438 150 75 Z M 150 75"/>
    <path fill="#AFD5D0" d="M 88.023438 88.632812 L 103.375 106.664062 C 104.125 107.535156 104.585938 108.621094 104.695312 109.757812 C 104.710938 109.941406 104.71875 110.117188 104.71875 110.285156 C 104.71875 111.5625 104.285156 112.816406 103.480469 113.804688 L 102.554688 114.933594 C 101.484375 116.253906 99.871094 117.023438 98.171875 117.023438 L 68.25 117.023438 C 66.558594 117.023438 64.960938 116.253906 63.894531 114.933594 L 62.988281 113.804688 C 62.0625 112.675781 61.628906 111.21875 61.761719 109.757812 C 61.871094 108.621094 62.332031 107.535156 63.074219 106.664062 L 78.429688 88.632812 C 78.152344 88.015625 62.246094 87.730469 49.164062 80.71875 C 45.703125 78.871094 42.160156 76.980469 38.523438 75.199219 C 36.75 74.332031 35.003906 73.394531 33.324219 72.34375 L 14.976562 60.882812 C 16.816406 60.304688 18.746094 60.003906 20.695312 60.003906 C 20.867188 60.003906 21.027344 60.019531 21.195312 60.019531 C 23.628906 60.082031 26.351562 60.246094 29.394531 60.53125 L 29.386719 60.640625 C 29.386719 60.640625 54.019531 77.273438 78.347656 72.601562 C 91.5625 70.078125 103.625 66.425781 110.570312 64.117188 C 112.15625 67.328125 109.089844 72.425781 107 75.101562 C 102.121094 81.3125 95.472656 86.011719 88.023438 88.632812"/>
    <path fill="#AFD5D0" d="M 110.570312 64.117188 C 103.625 66.425781 91.5625 70.078125 78.347656 72.601562 C 54.019531 77.273438 29.386719 60.640625 29.386719 60.640625 L 29.394531 60.53125 C 34.277344 60.980469 39.820312 61.726562 46.121094 62.878906 C 56.972656 64.804688 62.808594 64.453125 66.992188 58.851562 C 67.863281 57.671875 68.816406 56.550781 69.921875 55.574219 L 70.855469 54.753906 C 78.113281 48.359375 89.0625 48.585938 96.042969 55.273438 L 98.289062 57.421875 C 98.289062 57.421875 98.296875 57.398438 98.308594 57.347656 C 99.894531 59.3125 103.757812 60.75 107.203125 61.691406 C 108.992188 62.179688 110.050781 63.039062 110.570312 64.117188"/>
</svg> 